<?xml version="1.0" encoding="UTF-8"?>
<svg id="logo" xmlns="http://www.w3.org/2000/svg" viewBox="0 0 212.6 212.6">
  <defs>
    <style>
      .cls-1 {
        fill: #1d1d1b;
      }

      .cls-2 {
        fill: #fff;
      }

      .cls-3 {
        stroke-width: 1.5px;
      }

      .cls-3, .cls-4 {
        fill: none;
        stroke: #1d1d1b;
        stroke-linecap: round;
        stroke-miterlimit: 10;
      }

      .cls-5 {
        fill: #c6c6c6;
      }
    </style>
  </defs>
  <path class="cls-2" d="M173.84,161.93c3.38-5.6,3.56-11.61,2.69-18.1-.87-6.48-2.88-12.71-1.72-19.14.01-.04.02-.08.03-.12-5.49-2.35-12.2-6.26-18.29-12.78-5.54-5.93-8.96-12.3-11.08-18.02-.66.85-1.25,1.67-1.75,2.45-10.4-.57-20.39-1.58-30.73-2.82.3-7.51.09-19.35-3.96-21.92-3.97-2.52-10.89,2.37-16.74,8.37h0c-3.04,3.13-5.78,6.55-7.66,9.39-2.28,3.44-5.03,7.26-7.52,11.38-8.42-2.17-15.61-7.13-19.88-14.1-4.58-7.5-4.73-15.6-3.84-21.58-1.5.06-2.96.17-4.36.33h0s-.57-9.9,9.29-22.45c9.73-12.37,27.72-18.06,37.64-15.04,1.44-4.6,4.29-8.67,8.28-11.45,3.59-2.51,7.86-3.8,12.22-3.84-11.31-8.51-25.95-10.89-39.44-7.42-14.14,2.95-26.63,10.61-36.46,20.97,6.18,3.2,10.4,9.65,10.4,17.1,0,10.64-8.62,19.26-19.26,19.26-3.88,0-7.5-1.15-10.52-3.13-2.58,8.39-3.8,17.1-3.42,25.69,0,0-6.87,5.39-10.97,21.68-2.6,10.28-2.72,33.27,10.21,59.32,4.12,1.64,8.87,2.84,14.19,3.13,4.62.26,8.8-.22,12.42-1.02-.71-3.78-1.73-7.43-2.61-9.98-2.44-7.14-5.7-15.25-6.62-22.74,0,0,14.81,15.89,22.74,23.6,6.43,6.26,20.83,17.82,20.83,17.82,0,0,11.01,20.15,19.55,26.54,2.38-3.31,5.77-6.73,10.54-9.31,4.27-2.31,8.52-3.34,12.38-3.63-.73-5.25-1.59-9.64-1.59-9.64,1.29.11,2.59.18,3.89.19,4.21.05,8.47-.2,12.72-.71,0,0,9.88,7.67,18.72,11.34.5.21,1.05.43,1.65.66,1.4-3.79,3.74-7.85,7.64-11.29,2.96-2.62,6.43-4.53,10.17-5.72-2.17-2.47-4.39-4.6-6.19-6.02,2.59-2.15,4.83-4.62,6.41-7.25Z"/>
  <g>
    <path class="cls-5" d="M43.61,168.07c1.28,6.79,1.58,14.01-1.7,16.1-5.1,3.26-15.83-1.65-22.12-12.92-.99-1.78-1.92-3.54-2.79-5.29,4.12,1.64,8.87,2.84,14.19,3.13,4.62.26,8.8-.22,12.42-1.02Z"/>
    <path class="cls-5" d="M120.42,190.37c.99,7.09,1.74,15.77-.2,17.29-3.2,2.5-14.18,2.04-22.72-4.35,2.38-3.31,5.77-6.73,10.54-9.31,4.27-2.31,8.52-3.34,12.38-3.63Z"/>
    <path class="cls-5" d="M173.62,175.2c5.33,6.06,10.32,14.13,7.7,18.42-3.44,5.63-17.89,1.53-25.51-1.41,1.4-3.79,3.74-7.85,7.64-11.29,2.96-2.62,6.43-4.53,10.17-5.72Z"/>
    <path class="cls-5" d="M174.28,74.54c6.08,2.94,8.05,27.93,5.44,37.89-1.27,4.84-3.97,7.25-4.88,12.14-5.49-2.35-12.2-6.26-18.29-12.78-5.54-5.93-8.96-12.3-11.08-18.02,7.26-9.31,23.25-21.93,28.81-19.23Z"/>
    <path class="cls-5" d="M121.29,16.7c7.14,6.87,7.19,17.75,3.35,26.34-2.06,6.14-8.99,9.68-15.21,7.76-4.02-1.19-10.26-7.36-8.12-10.56,1.11-1.67,2.34-3.43,2.1-5.46-.35-3.28-4.02-5.72-7.04-6.87-.13-.04-.27-.09-.41-.13,1.44-4.6,4.29-8.67,8.28-11.45,3.59-2.51,7.86-3.8,12.22-3.84,1.69,1.26,3.31,2.67,4.83,4.21Z"/>
    <path class="cls-5" d="M40.56,26.04c6.18,3.2,10.4,9.65,10.4,17.1,0,10.64-8.62,19.26-19.26,19.26-3.88,0-7.5-1.15-10.52-3.13,3.79-12.29,10.5-23.86,19.38-33.23Z"/>
    <path class="cls-5" d="M92.29,79.85h0c-3.04,3.13-5.78,6.55-7.66,9.39-2.28,3.44-5.03,7.26-7.52,11.38-8.42-2.17-15.61-7.13-19.88-14.1-4.58-7.5-4.73-15.6-3.84-21.58,2.76-.13,5.66-.09,8.66.19,18.3,1.7,29.85,14.3,30.24,14.72Z"/>
    <path class="cls-5" d="M76.33,141.87c.39-9.69,6.61-18.08,15.72-20.08,11.03-2.42,22.13,5.45,24.78,17.57,1.06,4.83.62,9.6-.99,13.74-2.43,6.27-7.53,11.12-14.17,12.58-8.95,1.96-17.94-2.85-22.43-11.21-.97-1.8-1.73-3.77-2.23-5.88-.05-.16-.08-.32-.12-.48-.46-2.11-.64-4.21-.56-6.24Z"/>
    <path class="cls-5" d="M44.61,117.38c0,7.94-6.44,14.38-14.38,14.38s-14.39-6.44-14.39-14.38,6.44-14.38,14.39-14.38,14.38,6.44,14.38,14.38Z"/>
  </g>
  <g>
    <path class="cls-3" d="M178.93,136.73c7.1-7.78,17.74-12.19,28.26-11.71"/>
    <path class="cls-3" d="M181.13,141.41c5.1-4.76,12.56-7.29,19.29-5.43"/>
    <path class="cls-3" d="M181.18,147.52c3.96-1.89,8.49-2.55,12.82-1.86"/>
    <path class="cls-3" d="M89.76,146.06c-4.19-2.17-8.76-3.58-13.43-4.19-6.21-.82-12.6-.24-18.53,1.79"/>
    <path class="cls-3" d="M87.64,151.14c-3.39-1.38-6.99-2.23-10.63-2.55-3.34-.29-6.71-.13-10,.5"/>
    <path class="cls-3" d="M86.51,156.45c-2.19-1.3-4.73-1.97-7.27-1.98-1.43,0-2.86.2-4.23.61"/>
  </g>
  <g>
    <path class="cls-1" d="M117.41,158.1c-.97,0-1.93-.38-2.64-1.14-.03-.03-.43-.43-1.14-.98-1.98-1.5-6.23-3.92-12.3-3.18-2,.25-3.81-1.17-4.05-3.17-.24-1.99,1.17-3.81,3.17-4.05,8.61-1.05,14.71,2.44,17.59,4.61,1.23.94,1.91,1.66,2.04,1.79,1.37,1.47,1.29,3.77-.18,5.14-.7.65-1.59.97-2.48.97Z"/>
    <path class="cls-1" d="M147.58,157.33c-.54,0-1.1-.16-1.58-.48-1.32-.88-1.68-2.65-.81-3.97.28-.42,6.89-10.25,17.07-7.42,1.53.42,2.42,2.01,2,3.54-.42,1.53-2.01,2.42-3.54,2-6.13-1.7-10.55,4.77-10.74,5.05-.55.83-1.47,1.28-2.4,1.28Z"/>
  </g>
  <g>
    <path class="cls-4" d="M70.45,123.13c-.84-8.03,2.54-15.67,6.66-22.51,2.49-4.12,5.24-7.94,7.52-11.38,1.88-2.84,4.62-6.26,7.66-9.38h0c5.85-6.01,12.77-10.9,16.74-8.38,4.05,2.57,4.26,14.41,3.96,21.92-.15,3.68-.42,6.33-.42,6.33"/>
    <path class="cls-4" d="M112.99,93.4c10.34,1.24,20.33,2.25,30.73,2.82.5-.78,1.09-1.6,1.75-2.45,7.26-9.31,23.25-21.93,28.81-19.23,6.08,2.94,8.05,27.93,5.44,37.89-1.27,4.84-3.97,7.25-4.88,12.14l-.03.12c-1.16,6.43.85,12.66,1.72,19.14.87,6.49.69,12.5-2.69,18.1-1.58,2.63-3.82,5.1-6.41,7.25-3.7,3.09-8.1,5.53-12.28,6.82-6.33,1.97-13,3.42-19.71,4.21-4.25.51-8.51.76-12.72.71-1.3-.01-2.6-.08-3.89-.19-9.49-.82-18.75-4.22-26.72-9.47"/>
    <path class="cls-4" d="M92.29,79.86h0c-.39-.43-11.94-13.03-30.24-14.73-3-.28-5.9-.32-8.66-.19-1.5.06-2.96.17-4.36.33-12.06,1.31-20.45,5.4-20.45,5.4"/>
    <path class="cls-4" d="M167.32,169.09s.07.06.11.09c1.8,1.42,4.02,3.55,6.19,6.02,5.33,6.06,10.32,14.13,7.7,18.42-3.44,5.63-17.89,1.53-25.51-1.41-.6-.23-1.15-.45-1.65-.66-8.84-3.67-18.72-11.34-18.72-11.34"/>
    <path class="cls-4" d="M118.83,180.73s.86,4.39,1.59,9.64c.99,7.09,1.74,15.77-.2,17.29-3.2,2.5-14.18,2.04-22.72-4.35-8.54-6.39-19.55-26.54-19.55-26.54,0,0-14.4-11.56-20.83-17.82-7.93-7.71-22.74-23.6-22.74-23.6.92,7.49,4.18,15.6,6.62,22.74.88,2.55,1.9,6.2,2.61,9.98,1.28,6.79,1.58,14.01-1.7,16.1-5.1,3.26-15.83-1.65-22.12-12.92-.99-1.78-1.92-3.54-2.79-5.29-12.93-26.05-12.81-49.04-10.21-59.32,4.1-16.29,10.97-21.68,10.97-21.68-.38-8.59.84-17.3,3.42-25.69,3.79-12.29,10.5-23.86,19.38-33.23,9.83-10.36,22.32-18.02,36.46-20.97,13.49-3.47,28.13-1.09,39.44,7.42,1.69,1.26,3.31,2.67,4.83,4.21,7.14,6.87,7.19,17.75,3.35,26.34-2.06,6.14-8.99,9.68-15.21,7.76-4.02-1.19-10.26-7.36-8.12-10.56,1.11-1.67,2.34-3.43,2.1-5.46-.35-3.28-4.02-5.72-7.04-6.87-.13-.04-.27-.09-.41-.13-9.92-3.02-27.91,2.67-37.64,15.04-9.86,12.55-9.29,22.44-9.29,22.44"/>
  </g>
</svg>