<?xml version="1.0" encoding="UTF-8"?>
<svg id="prints" xmlns="http://www.w3.org/2000/svg" viewBox="0 0 70.87 70.87">
  <defs>
    <style>
      .cls-1 {
        fill: #1d1d1b;
      }
    </style>
  </defs>
  <path class="cls-1" d="M5.64,21.19c-3.8,2.25-4.31,9.09-2.48,14.07,1.61,4.46,6.88,8.88,11.67,6.52,7.04-4.55,3.02-15.87-3.17-19.39-2.25-1.43-4.36-1.93-5.91-1.26l-.12.05Z"/>
  <path class="cls-1" d="M35.08,15.97c1.55,16.3-13.92,15.49-16.82.82-1.32-5.43,1.72-13.77,8.46-12.11,4.61,1.24,7.6,6.27,8.32,11.06l.03.23Z"/>
  <path class="cls-1" d="M63.09,25.2c-4.4-.3-8.59,4.58-9.81,9.29-1.11,4.2.84,10.27,6.13,11.01,8.37.25,11.25-10.36,8.04-16.24-1.08-2.25-2.57-3.73-4.22-4.04l-.13-.02Z"/>
  <path class="cls-1" d="M41.65,13.71c7.77-14.41,20.18-5.14,14.44,8.66-1.93,5.25-9.08,10.49-13.77,5.36-3.14-3.6-2.83-9.43-.77-13.82l.1-.21Z"/>
  <path class="cls-1" d="M55.95,54.87c-.31-3.78-2.5-9.39-7.12-15.18-6.37-7.98-11.9-8.2-13.84-8.2s-7.46.22-13.84,8.2c-4.62,5.79-6.81,11.4-7.12,15.18-.46,5.55,3.3,11.41,10.4,11.52,3.83.19,7.6-3.46,10.56-3.46,2.96,0,6.73,3.65,10.56,3.46,7.1-.11,10.86-5.97,10.4-11.52Z"/>
</svg>